HIERARCHY
ROOT Hips
{
    OFFSET 0.000000 0.000000 0.000000
    CHANNELS 6 Xposition Yposition Zposition Zrotation Xrotation Yrotation
    JOINT Spine
    {
        OFFSET -0.000000 0.083210 0.000000
        CHANNELS 3 Zrotation Xrotation Yrotation
        JOINT Spine1
        {
            OFFSET -0.000000 0.256334 0.000000
            CHANNELS 3 Zrotation Xrotation Yrotation
            JOINT Neck
            {
                OFFSET -0.000000 0.275576 0.002912
                CHANNELS 3 Zrotation Xrotation Yrotation
                JOINT Head
                {
                    OFFSET -0.000000 0.157287 0.020295
                    CHANNELS 3 Zrotation Xrotation Yrotation
                    End Site
                    {
                        OFFSET -0.000000 0.202951 0.000000
                    }
                }
            }
            JOINT LeftShoulder
            {
                OFFSET 0.041044 0.235234 -0.000041
                CHANNELS 3 Zrotation Xrotation Yrotation
                JOINT LeftArm
                {
                    OFFSET 0.117964 0.000000 0.000000
                    CHANNELS 3 Zrotation Xrotation Yrotation
                    JOINT LeftForeArm
                    {
                        OFFSET 0.291248 0.000000 0.000000
                        CHANNELS 3 Zrotation Xrotation Yrotation
                        JOINT LeftHand
                        {
                            OFFSET 0.245673 0.000000 0.000000
                            CHANNELS 3 Zrotation Xrotation Yrotation
                            End Site
                            {
                                OFFSET 0.152213 0.000000 0.000000
                            }
                        }
                    }
                }
            }
            JOINT RightShoulder
            {
                OFFSET -0.040052 0.235234 -0.000041
                CHANNELS 3 Zrotation Xrotation Yrotation
                JOINT RightArm
                {
                    OFFSET -0.117964 0.000000 0.000000
                    CHANNELS 3 Zrotation Xrotation Yrotation
                    JOINT RightForeArm
                    {
                        OFFSET -0.291248 0.000000 0.000000
                        CHANNELS 3 Zrotation Xrotation Yrotation
                        JOINT RightHand
                        {
                            OFFSET -0.245673 0.000000 0.000000
                            CHANNELS 3 Zrotation Xrotation Yrotation
                            End Site
                            {
                                OFFSET -0.152213 0.000000 0.000000
                            }
                        }
                    }
                }
            }
        }
    }
    JOINT LeftUpLeg
    {
        OFFSET 0.101475 0.000000 0.000000
        CHANNELS 3 Zrotation Xrotation Yrotation
        JOINT LeftLeg
        {
            OFFSET -0.000000 -0.446535 0.000000
            CHANNELS 3 Zrotation Xrotation Yrotation
            JOINT LeftFoot
            {
                OFFSET -0.000000 -0.400037 0.000000
                CHANNELS 3 Zrotation Xrotation Yrotation
                JOINT LeftToeBase
                {
                    OFFSET -0.000000 -0.065959 0.152213
                    CHANNELS 3 Zrotation Xrotation Yrotation
                    End Site
                    {
                        OFFSET -0.000000 0.000000 0.040590
                    }
                }
            }
        }
    }
    JOINT RightUpLeg
    {
        OFFSET -0.101475 0.000000 0.000000
        CHANNELS 3 Zrotation Xrotation Yrotation
        JOINT RightLeg
        {
            OFFSET -0.000000 -0.446535 0.000000
            CHANNELS 3 Zrotation Xrotation Yrotation
            JOINT RightFoot
            {
                OFFSET -0.000000 -0.400037 0.000000
                CHANNELS 3 Zrotation Xrotation Yrotation
                JOINT RightToeBase
                {
                    OFFSET -0.000000 -0.065959 0.152213
                    CHANNELS 3 Zrotation Xrotation Yrotation
                    End Site
                    {
                        OFFSET -0.000000 0.000000 0.040590
                    }
                }
            }
        }
    }
}
MOTION
Frames:    11
Frame Time:    0.008333
0.638408    0.918437    0.224049    4.793385    4.915726    -153.813202    -4.456758    7.733045    -5.515704    -3.127977    5.826758    -1.775274    -10.213404    14.175786    30.720112    -12.043610    2.807130    30.730970    1.549964    2.190493    -33.394268    -12.704956    40.701126    -67.624969    7.505803    -34.859180    -30.135962    -8.001891    -33.902962    12.322389    1.864635    4.770433    34.356415    31.598820    31.181879    40.821960    -33.272785    -46.722076    0.217918    25.951660    -46.919468    -1.534782    17.346750    7.876832    17.659992    -12.550532    33.980827    37.047989    -23.125349    -11.485836    6.697057    0.010894    -10.203375    3.163209    8.815384    -22.612309    26.887924    -0.489354    26.191553    31.979212    10.100952    -7.078048    -5.528996    0.364941    -3.215338    6.795198    
0.636315    0.918864    0.222600    4.825993    4.905520    -154.708481    -4.441080    7.488889    -6.187913    -3.493291    5.657886    -1.982410    -10.262204    14.221260    31.355642    -12.329116    2.815057    31.401178    1.654761    2.086029    -33.775509    -12.252901    39.977001    -68.070625    8.049411    -34.256851    -30.088991    -7.953407    -33.160412    12.171812    1.773990    4.606592    33.809174    31.931538    31.136837    40.857758    -35.994930    -47.070618    -0.872394    26.488781    -47.452354    -1.186024    17.023197    8.312455    17.782450    -12.506560    33.783909    37.204803    -23.106321    -11.191495    6.987658    0.018948    -10.437571    3.431128    8.952075    -22.452194    26.984903    -0.553004    26.048203    32.554825    10.055196    -7.015974    -5.546998    0.375668    -3.281182    6.920593    
0.634283    0.919305    0.221055    4.841926    4.877953    -155.578018    -4.527886    7.176147    -6.835267    -3.715301    5.687859    -2.183960    -10.337551    14.000559    31.954687    -12.508629    2.909637    32.045273    1.817450    1.680716    -34.209366    -12.614995    39.112236    -68.056488    8.298474    -33.313850    -30.312645    -8.309562    -32.151703    11.940561    1.566705    4.169971    33.218201    32.871326    30.583462    40.507347    -37.855431    -47.221485    -0.932155    26.044882    -47.676430    -1.527161    16.663889    8.694575    17.963469    -12.423378    33.592518    37.270779    -23.024477    -10.887880    7.296155    0.027270    -10.646443    3.696459    9.078806    -22.303265    27.101068    -0.623979    25.938379    33.241440    9.989378    -7.005458    -5.699548    0.383070    -3.313307    7.020455    
0.632391    0.919780    0.219342    4.877430    4.869625    -156.444962    -4.553384    6.877175    -7.486900    -4.020658    5.658603    -2.383591    -10.394404    13.894052    32.531898    -12.705222    2.894677    32.652260    2.017388    1.313238    -34.506001    -12.613694    38.381592    -68.400345    9.071836    -32.519981    -30.085741    -10.120137    -31.259214    10.794806    1.430269    3.774016    32.744755    33.682014    30.259827    40.194374    -40.198589    -47.496799    -1.441818    25.736668    -48.106213    -1.662573    16.391739    9.132267    18.090860    -12.408451    33.407143    37.303165    -22.970331    -10.603732    7.551292    0.037515    -10.858419    4.050636    9.253184    -22.144497    27.243490    -0.681322    25.853922    33.604843    9.919773    -6.941252    -5.572135    0.387893    -3.311805    7.110313    
0.630718    0.920182    0.217344    4.934340    4.841862    -157.310745    -4.581013    6.563298    -8.091813    -4.309024    5.574634    -2.570586    -10.439233    13.846279    33.084160    -12.893041    2.898775    33.232250    2.219123    0.965125    -34.810341    -12.987827    37.443661    -68.423973    9.190573    -31.306976    -30.438911    -9.988528    -29.961481    10.752486    1.324989    3.430079    32.227104    34.517414    29.945461    39.865025    -42.462833    -47.853874    -1.641624    24.117989    -48.692234    -2.910740    16.110765    9.548892    18.460514    -12.150828    33.255322    37.126823    -22.969559    -10.208629    7.748892    0.048817    -11.083096    4.335361    9.471851    -21.986355    27.496704    -0.732446    25.754318    33.581074    9.881538    -6.808558    -5.182725    0.396744    -3.383763    7.189609    
0.628954    0.920702    0.215486    4.944180    4.843831    -158.074921    -4.617509    6.378140    -8.758570    -4.562377    5.383912    -2.786353    -10.523047    13.860428    33.607761    -13.109937    2.853946    33.765896    2.374655    0.631328    -35.077274    -13.162185    36.672100    -68.590836    9.583347    -30.385469    -30.835653    -10.000313    -28.916479    10.929575    1.220864    3.080124    31.820204    35.398769    29.678041    39.453926    -45.084843    -48.124275    -2.174349    23.702475    -49.144051    -3.052005    15.832907    9.954869    18.547676    -12.061443    33.096767    37.011711    -22.960384    -9.876774    8.039766    0.060633    -11.262638    4.715207    9.595775    -21.806400    27.642485    -0.747882    25.672544    33.589119    9.828605    -6.693340    -4.853407    0.406168    -3.489023    7.239724    
0.627321    0.921175    0.213534    4.974611    4.822998    -158.830658    -4.671468    6.149901    -9.374961    -4.766090    5.232149    -2.986536    -10.573614    13.885038    34.066807    -13.383794    2.786776    34.246143    2.534353    0.362208    -35.310837    -13.211241    35.790424    -68.866020    9.956863    -29.287476    -31.203812    -10.057502    -27.654257    10.538989    1.056915    2.917205    31.392540    36.178596    29.285072    39.126972    -47.879120    -48.418884    -2.674879    23.225985    -49.654400    -3.391266    15.583185    10.358493    18.711386    -11.863367    32.985558    36.759411    -23.031162    -9.477526    8.260815    0.083881    -11.647683    5.149096    9.764292    -21.670567    27.880754    -0.755595    25.654667    33.866787    9.714170    -6.663748    -4.877512    0.414278    -3.530410    7.336791    
0.625703    0.921598    0.211415    4.973536    4.807149    -159.524155    -4.748583    5.961063    -10.000859    -4.956820    5.059812    -3.192758    -10.623470    13.870446    34.495304    -13.619247    2.761269    34.698112    2.717049    0.066716    -35.479748    -13.053182    35.070328    -69.310020    10.439107    -28.347321    -31.741362    -9.201010    -26.497272    11.056273    0.871366    2.665189    30.931612    36.846615    29.357243    39.025112    -51.491478    -48.526134    -3.974032    23.177017    -50.231873    -3.427826    15.305755    10.736103    18.786402    -11.705278    32.839375    36.483593    -22.990528    -9.075799    8.574182    0.102730    -11.930958    5.459005    9.889295    -21.518126    28.093924    -0.756290    25.650753    34.054855    9.692548    -6.618862    -4.847939    0.426202    -3.642397    7.419302    
0.624296    0.921980    0.209198    4.997256    4.794750    -160.236450    -4.828411    5.767651    -10.512557    -5.148337    4.889092    -3.361274    -10.495804    13.934491    34.832912    -14.009275    2.740005    35.116478    2.930817    -0.305045    -35.709133    -13.308027    34.223595    -69.473740    11.029472    -27.057611    -32.274742    -10.924042    -25.058571    10.186811    0.759774    2.536274    30.415571    37.642586    28.987646    38.656574    -54.512775    -48.666725    -4.520450    23.968178    -50.576405    -2.912016    15.076711    11.095113    18.947899    -11.513091    32.764755    35.873898    -22.925358    -8.746455    9.079985    0.128108    -12.310973    5.767127    10.079092    -21.379370    28.292305    -0.795394    25.690248    34.250580    9.656417    -6.576007    -4.799846    0.438067    -3.724164    7.531963    
0.622801    0.922414    0.206943    4.973980    4.794355    -160.867691    -4.942975    5.544171    -11.069901    -5.277665    4.898255    -3.539815    -10.624987    13.795797    35.177914    -14.089194    2.553305    35.434116    3.191206    -0.944167    -35.965977    -13.497407    33.557983    -69.688103    11.261545    -26.018095    -33.237900    -9.419882    -23.767866    10.797217    0.505338    2.213350    29.953142    38.522610    28.753553    38.291451    -57.651222    -49.071812    -5.035273    22.795874    -51.322567    -3.687569    14.821213    11.460930    18.923489    -11.378238    32.662277    35.478291    -22.957968    -8.372602    9.454956    0.153296    -12.686869    5.993717    10.196575    -21.233936    28.265642    -0.880703    25.775320    34.670307    9.482273    -6.580269    -4.853066    0.443786    -3.753381    7.596801    
0.621387    0.922783    0.204545    4.975247    4.818884    -161.534378    -4.983943    5.433594    -11.619059    -5.427818    4.671491    -3.726371    -10.749100    13.813004    35.573872    -14.278430    2.432420    35.812363    3.374987    -1.329647    -35.992889    -13.509576    32.780724    -70.062584    11.615312    -24.770666    -34.097340    -8.659100    -22.255911    10.963598    0.321942    2.087011    29.586897    39.231728    28.551319    37.931923    -60.917858    -49.364635    -5.730793    22.411230    -51.992115    -3.906557    14.607235    11.865635    18.933416    -11.262157    32.540993    35.211185    -22.823082    -7.828037    9.712690    0.187805    -13.153532    6.311124    10.366050    -21.073566    28.355556    -0.927050    25.883411    35.079319    9.296476    -6.611169    -5.026719    0.449064    -3.792836    7.641957    
